<svg width="34" height="33" viewBox="0 0 34 33" fill="none" xmlns="http://www.w3.org/2000/svg">
<path d="M31.0664 8.29244C29.5775 5.74141 27.558 3.72176 25.0072 2.23302C22.456 0.744214 19.6709 0 16.6498 0C13.6291 0 10.8431 0.744442 8.29244 2.23302C5.74141 3.72168 3.72191 5.74141 2.23302 8.29244C0.744367 10.8434 0 13.6291 0 16.6493C0 20.2774 1.0585 23.5398 3.17603 26.4375C5.29333 29.3354 8.02857 31.3406 11.3815 32.4534C11.7718 32.5258 12.0607 32.4749 12.2486 32.3018C12.4365 32.1286 12.5304 31.9115 12.5304 31.6517C12.5304 31.6084 12.5267 31.2183 12.5195 30.4811C12.512 29.7438 12.5085 29.1007 12.5085 28.5519L12.0099 28.6382C11.6919 28.6964 11.2909 28.7211 10.8066 28.7141C10.3226 28.7073 9.8202 28.6566 9.29999 28.5623C8.77954 28.4688 8.29548 28.2521 7.8474 27.9124C7.39955 27.5728 7.08162 27.1282 6.89369 26.5793L6.6769 26.0805C6.5324 25.7483 6.3049 25.3794 5.99411 24.975C5.68332 24.5702 5.36904 24.2957 5.05111 24.1512L4.89932 24.0426C4.79818 23.9704 4.70432 23.8833 4.61753 23.7822C4.53082 23.6811 4.4659 23.58 4.42254 23.4787C4.3791 23.3773 4.4151 23.2942 4.53089 23.229C4.64669 23.1637 4.85596 23.1321 5.15961 23.1321L5.59304 23.1969C5.88211 23.2548 6.23968 23.4278 6.66619 23.7171C7.09248 24.0061 7.44291 24.3818 7.71755 24.8441C8.05014 25.4368 8.45083 25.8884 8.92078 26.1992C9.39035 26.51 9.86379 26.6651 10.3406 26.6651C10.8175 26.6651 11.2294 26.629 11.5764 26.5571C11.923 26.4848 12.2482 26.3761 12.5519 26.2317C12.6819 25.263 13.0361 24.5188 13.614 23.9985C12.7903 23.912 12.0497 23.7816 11.3919 23.6083C10.7345 23.4347 10.0551 23.153 9.35428 22.7624C8.65304 22.3723 8.07132 21.8879 7.60897 21.3101C7.14654 20.7319 6.76703 19.9729 6.47097 19.0337C6.17476 18.0941 6.02661 17.0102 6.02661 15.7818C6.02661 14.0327 6.59762 12.5443 7.73942 11.3157C7.20455 10.0007 7.25505 8.52654 7.89106 6.89338C8.31021 6.76316 8.93179 6.86088 9.75551 7.18595C10.5794 7.51117 11.1826 7.78976 11.5657 8.02075C11.9489 8.25166 12.2559 8.44734 12.4872 8.60604C13.8316 8.2304 15.2189 8.04254 16.6496 8.04254C18.0804 8.04254 19.468 8.2304 20.8125 8.60604L21.6363 8.08598C22.1996 7.73897 22.8649 7.42096 23.6304 7.13189C24.3964 6.84296 24.9822 6.76338 25.3871 6.89361C26.0372 8.52684 26.0951 10.0009 25.5601 11.3159C26.7018 12.5445 27.2731 14.0333 27.2731 15.782C27.2731 17.0105 27.1244 18.0978 26.8286 19.0446C26.5325 19.9915 26.1497 20.7498 25.6801 21.3209C25.2101 21.892 24.6246 22.3726 23.9238 22.7626C23.2227 23.1529 22.5431 23.4346 21.8857 23.6082C21.228 23.7818 20.4874 23.9122 19.6637 23.9989C20.415 24.6491 20.7907 25.6753 20.7907 27.0772V31.6511C20.7907 31.9109 20.8811 32.1279 21.0619 32.3012C21.2426 32.4743 21.5279 32.5252 21.9181 32.4527C25.2716 31.3401 28.0068 29.3348 30.124 26.4369C32.241 23.5392 33.2999 20.2768 33.2999 16.6487C33.2991 13.6288 32.5544 10.8434 31.0664 8.29244Z" fill="#F2AC96"/>
</svg>
