<svg width="34" height="24" viewBox="0 0 34 24" fill="none" xmlns="http://www.w3.org/2000/svg">
<path fill-rule="evenodd" clip-rule="evenodd" d="M30.1572 23.2341H31.1061C32.3128 23.2341 33.3001 22.2468 33.3001 21.0401V2.19406C33.3001 0.987327 32.3128 3.05176e-05 31.1061 3.05176e-05H30.1572V23.2342V23.2341Z" fill="#F2AC96"/>
<path fill-rule="evenodd" clip-rule="evenodd" d="M16.7429 14.6807L16.717 14.6989L16.6501 14.6517L16.5831 14.6989L16.5572 14.6807C11.0037 10.7695 5.55779 6.58462 0 2.49388L1.48126 0.171956L3.09958 0.0396242L3.14288 0.000549316L16.5848 10.0368L16.65 9.98844L16.7153 10.0368L30.1572 0.000549316L30.2005 0.0396242L31.8188 0.171956L33.3001 2.49388C27.7423 6.58464 22.2964 10.7695 16.7429 14.6807H16.7429Z" fill="#F2AC96"/>
<path fill-rule="evenodd" clip-rule="evenodd" d="M3.14341 23.2342H2.19455C0.987816 23.2342 0.000518799 22.2469 0.000518799 21.0402V2.19417C0.000518799 0.987433 0.987809 0.000137329 2.19455 0.000137329H3.14341V23.2343V23.2342Z" fill="#F2AC96"/>
<path d="M2.38882 22.1371H30.9115V23.2341H2.38882V22.1371Z" fill="#F2AC96"/>
<path d="M2.38882 1.52588e-05H30.9115V1.09705H2.38882V1.52588e-05Z" fill="#F2AC96"/>
</svg>
