<svg width="33" height="32" viewBox="0 0 33 32" fill="none" xmlns="http://www.w3.org/2000/svg">
<path d="M7.54472 31.5857V10.2749H0.420278V31.5857H7.54472ZM3.98344 7.36351C6.46784 7.36351 8.01429 5.72706 8.01429 3.6821C7.96798 1.591 6.46794 0 4.03061 0C1.59361 0 0 1.59102 0 3.6821C0 5.72718 1.54604 7.36351 3.93698 7.36351H3.98328H3.98344Z" fill="#F6B197"/>
<path d="M11.3143 31.5857H18.4184V19.4959C18.4184 18.8489 18.4646 18.2025 18.6522 17.74C19.1658 16.4472 20.3347 15.1083 22.2972 15.1083C24.8679 15.1083 25.8963 17.0936 25.8963 20.0039V31.5856H33V19.1723C33 12.5226 29.4952 9.42857 24.8211 9.42857C20.9887 9.42857 19.306 11.5983 18.3712 13.0762H18.4186V9.93642H11.3144C11.4077 11.9678 11.3144 31.5854 11.3144 31.5854L11.3143 31.5857Z" fill="#F6B197"/>
</svg>
