<svg width="35" height="28" viewBox="0 0 35 28" fill="none" xmlns="http://www.w3.org/2000/svg">
<path d="M34.6321 3.31147C33.3583 3.87286 31.988 4.25256 30.551 4.42214C32.0182 3.54845 33.1442 2.16604 33.6757 0.5161C32.3028 1.32554 30.7815 1.91273 29.1637 2.22924C27.8676 0.857359 26.021 0 23.9762 0C20.0529 0 16.871 3.16243 16.871 7.06162C16.871 7.61511 16.934 8.15386 17.0559 8.67101C11.1509 8.37663 5.91509 5.56546 2.41044 1.29183C1.79895 2.33456 1.44817 3.54845 1.44817 4.84239C1.44817 7.29176 2.70347 9.45412 4.60893 10.7201C3.44477 10.6838 2.34844 10.3662 1.39094 9.83593C1.39041 9.86594 1.39041 9.89596 1.39041 9.92545C1.39041 13.347 3.8406 16.2008 7.09037 16.8491C6.49478 17.0113 5.86581 17.0971 5.21882 17.0971C4.75994 17.0971 4.31537 17.0534 3.88193 16.9713C4.78591 19.7761 7.40936 21.8179 10.5193 21.8753C8.08709 23.7696 5.02383 24.8982 1.69404 24.8982C1.12176 24.8982 0.554788 24.865 0 24.7991C3.14274 26.8035 6.87842 27.9721 10.8907 27.9721C23.9597 27.9721 31.1068 17.2119 31.1068 7.87948C31.1068 7.57351 31.0999 7.26859 31.0862 6.9663C32.4755 5.97097 33.6799 4.72759 34.6321 3.31147Z" fill="#F6B197"/>
</svg>
