<svg width="34" height="30" viewBox="0 0 34 30" fill="none" xmlns="http://www.w3.org/2000/svg">
<mask id="mask0" mask-type="alpha" maskUnits="userSpaceOnUse" x="0" y="0" width="34" height="30">
<path d="M0.119306 8.48377C3.75791 5.21902 7.00622 -0.470522 10.7773 0.711104C17.0267 2.32859 14.3266 14.2836 17.8778 19.8727C22.7416 17.1299 25.8974 11.3601 24.5864 8.366C24.2932 7.52928 24.6501 5.44263 20.657 7.2656C19.6206 7.73877 19.663 5.90547 19.8454 5.65735C23.5423 1.59495 25.6772 -0.099512 28.2069 0.00449767C30.3343 0.359894 34.0756 2.75041 33.3887 8.48377C31.9649 17.0148 19.4391 30.4111 15.2525 29.9175C10.4593 30.9749 8.02253 15.8324 4.41783 8.71931L1.11918 9.99566C-0.240081 10.2099 -0.0525112 9.34131 0.119306 8.48377Z" fill="white"/>
</mask>
<g mask="url(#mask0)">
<path d="M2.28363 -7.57626H31.5976C35.1001 -7.57626 37.9395 -4.73691 37.9395 -1.23438V28.0763C37.9395 31.5788 35.1001 34.4182 31.5976 34.4182H2.28363C-1.21889 34.4182 -4.05825 31.5788 -4.05825 28.0763V-1.23438C-4.05825 -4.73691 -1.21889 -7.57626 2.28363 -7.57626Z" fill="#F6B197"/>
<path fill-rule="evenodd" clip-rule="evenodd" d="M26.8436 -5.78094H7.03756C1.79484 -5.78094 -2.42584 -1.52596 -2.42584 3.75938V23.0826C-2.25614 27.2082 -1.60338 24.6001 -0.36087 20.0312C1.08319 14.7212 5.78605 10.0802 11.5133 6.60207C15.8847 3.94732 20.7777 2.25211 29.6842 2.09084C34.7354 1.99938 34.2894 -4.46468 26.8436 -5.78094Z" fill="url(#paint0_linear)"/>
</g>
<defs>
<linearGradient id="paint0_linear" x1="1.20213" y1="-11.8896" x2="6.66635" y2="4.03789" gradientUnits="userSpaceOnUse">
<stop stop-color="white"/>
<stop offset="1" stop-color="white" stop-opacity="0"/>
</linearGradient>
</defs>
</svg>
